name symmetric_stride_kinematics_HTD_Plus_6.mot
datacolumns 38
datarows 11
range 0.00000000 0.01117527
endheader
                time	/jointset/ground_pelvis/pelvis_tilt/value	/jointset/ground_pelvis/pelvis_list/value	/jointset/ground_pelvis/pelvis_rotation/value	/jointset/ground_pelvis/pelvis_tx/value	/jointset/ground_pelvis/pelvis_ty/value	/jointset/ground_pelvis/pelvis_tz/value	/jointset/hip_r/hip_flexion_r/value	/jointset/hip_r/hip_adduction_r/value	/jointset/hip_r/hip_rotation_r/value	/jointset/knee_r/knee_angle_r/value	/jointset/ankle_r/ankle_angle_r/value	/jointset/subtalar_r/subtalar_angle_r/value	/jointset/mtp_r/mtp_angle_r/value	/jointset/hip_l/hip_flexion_l/value	/jointset/hip_l/hip_adduction_l/value	/jointset/hip_l/hip_rotation_l/value	/jointset/knee_l/knee_angle_l/value	/jointset/ankle_l/ankle_angle_l/value	/jointset/subtalar_l/subtalar_angle_l/value	/jointset/mtp_l/mtp_angle_l/value	/jointset/back/lumbar_extension/value	/jointset/back/lumbar_bending/value	/jointset/back/lumbar_rotation/value	/jointset/acromial_r/arm_flex_r/value	/jointset/acromial_r/arm_add_r/value	/jointset/acromial_r/arm_rot_r/value	/jointset/elbow_r/elbow_flex_r/value	/jointset/radioulnar_r/pro_sup_r/value	/jointset/radius_hand_r/wrist_flex_r/value	/jointset/radius_hand_r/wrist_dev_r/value	/jointset/acromial_l/arm_flex_l/value	/jointset/acromial_l/arm_add_l/value	/jointset/acromial_l/arm_rot_l/value	/jointset/elbow_l/elbow_flex_l/value	/jointset/radioulnar_l/pro_sup_l/value	/jointset/radius_hand_l/wrist_flex_l/value	/jointset/radius_hand_l/wrist_dev_l/value	
          0.00000000	         -2.36801204	         -7.27698661	          5.07127877	          0.00000000	          0.99831215	          0.30245341	         37.31797062	          3.86208177	         -8.83879147	        -26.50855174	        -26.66866890	        -16.77558011	         -8.81680680	          4.23433400	        -15.31783923	          3.33521997	       -118.53295342	        -12.75282322	        -21.96470551	         -3.54915517	        -18.21568451	         10.76998431	         -7.01122743	        -29.50240473	        -24.28593473	        -14.68695525	         86.58234627	         69.85060443	        -23.37888583	          5.23619807	         -0.45028235	        -26.24000087	        -14.44095632	         73.51448874	         77.27693701	        -18.37224468	          5.09001398	
          0.00065511	         -2.47258672	         -7.29779191	          4.74991440	          0.00754915	          0.99811919	          0.30279347	         36.99884862	          4.11370217	         -8.61590653	        -26.02429210	        -26.39241904	        -17.04789055	         -8.49009502	          4.63034960	        -15.33145657	          3.12683663	       -119.00195226	        -12.57291423	        -22.13688822	         -3.50939871	        -18.15678930	         10.73892164	         -6.82531451	        -28.58368926	        -24.41903413	        -14.61645690	         86.71946186	         70.15030254	        -23.43275375	          5.23880723	         -0.90921985	        -26.23268843	        -14.53550915	         72.96502675	         77.03361169	        -18.48157377	          5.08785418	
          0.00272500	         -2.82324089	         -7.35454967	          3.70850994	          0.03139205	          0.99741770	          0.30387114	         36.00253250	          4.88978437	         -7.89586911	        -24.53809826	        -25.45693902	        -17.82542056	         -7.51567143	          5.91376146	        -15.38311377	          2.45499382	       -120.47410489	        -12.01494526	        -22.67008965	         -3.45382222	        -17.94488389	         10.63220833	         -6.20733414	        -25.63283992	        -24.81631811	        -14.36594600	         87.09126837	         71.10558998	        -23.61558774	          5.22637214	         -2.32767401	        -26.18393049	        -14.76887046	         71.29872768	         76.18394563	        -18.83838014	          5.13454261	
          0.00422514	         -3.09532229	         -7.38593401	          2.92889421	          0.04866364	          0.99682209	          0.30465348	         35.29161620	          5.43281601	         -7.35822230	        -23.50785753	        -24.73731519	        -18.29637223	         -6.87827907	          6.87260920	        -15.42906288	          1.95523355	       -121.53099967	        -11.61862730	        -23.04256495	         -3.48124005	        -17.76812177	         10.54721009	         -5.73002916	        -23.45615423	        -25.07886815	        -14.17064301	         87.31359287	         71.82784356	        -23.76006177	          5.20564153	         -3.33177264	        -26.12264916	        -14.88575389	         70.15956216	         75.55004275	        -19.10186085	          5.18833638	
          0.00422514	         -3.09532229	         -7.38593401	          2.92889421	          0.04866364	          0.99682209	          0.30465348	         35.29161620	          5.43281601	         -7.35822230	        -23.50785753	        -24.73731519	        -18.29637223	         -6.87827907	          6.87260920	        -15.42906288	          1.95523355	       -121.53099967	        -11.61862730	        -23.04256495	         -3.48124005	        -17.76812177	         10.54721009	         -5.73002916	        -23.45615423	        -25.07886815	        -14.17064301	         87.31359287	         71.82784356	        -23.76006177	          5.20564153	         -3.33177264	        -26.12264916	        -14.88575389	         70.15956216	         75.55004275	        -19.10186085	          5.18833638	
          0.00488025	         -3.21855416	         -7.39677674	          2.58191347	          0.05620408	          0.99653899	          0.30499493	         34.98403231	          5.66444860	         -7.11914734	        -23.07159584	        -24.41698554	        -18.47546774	         -6.61295492	          7.29848812	        -15.45147093	          1.73365106	       -121.98968953	        -11.44725673	        -23.20067668	         -3.51100745	        -17.68512649	         10.50823593	         -5.51378410	        -22.49752454	        -25.18601590	        -14.08498217	         87.40119233	         72.15563899	        -23.82630445	          5.19541807	         -3.76546217	        -26.08841561	        -14.92615050	         69.68070697	         75.27846113	        -19.21709178	          5.21020918	
          0.00695014	         -3.62425321	         -7.41726821	          1.45952954	          0.08002031	          0.99555254	          0.30607161	         34.02382529	          6.37159879	         -6.34494377	        -21.75508713	        -23.39690311	        -18.91315984	         -5.53147436	          8.67088794	        -15.53081007	          1.02030453	       -123.42664109	        -10.91407334	        -23.68046701	         -3.58785753	        -17.40096828	         10.37698653	         -4.79838586	        -19.44512476	        -25.49113197	        -13.82550935	         87.65143648	         73.20177583	        -24.04821622	          5.15048163	         -5.11868613	        -25.95785197	        -14.99999799	         68.24274835	         74.47414204	        -19.57959657	          5.30051747	
          0.00845027	         -3.93230463	         -7.41643260	          0.62294822	          0.09727340	          0.99475033	          0.30684724	         33.33857535	          6.85710800	         -5.76449243	        -20.86692721	        -22.62412242	        -19.08901407	         -4.59779970	          9.68983737	        -15.59480534	          0.49202535	       -124.45572075	        -10.53031625	        -24.00501038	         -3.66699604	        -17.17522488	         10.27316108	         -4.25036020	        -17.21789483	        -25.67777340	        -13.66046130	         87.82068559	         73.93030863	        -24.22101998	          5.11923705	         -6.08571855	        -25.84660853	        -14.99999915	         67.27183353	         73.89423946	        -19.84242837	          5.39352869	
          0.00845027	         -3.93230463	         -7.41643260	          0.62294822	          0.09727340	          0.99475033	          0.30684724	         33.33857535	          6.85710800	         -5.76449243	        -20.86692721	        -22.62412242	        -19.08901407	         -4.59779970	          9.68983737	        -15.59480534	          0.49202535	       -124.45572075	        -10.53031625	        -24.00501038	         -3.66699604	        -17.17522488	         10.27316108	         -4.25036020	        -17.21789483	        -25.67777340	        -13.66046130	         87.82068559	         73.93030863	        -24.22101998	          5.11923705	         -6.08571855	        -25.84660853	        -14.99999915	         67.27183353	         73.89423946	        -19.84242837	          5.39352869	
          0.00910539	         -4.07017227	         -7.41128603	          0.25199185	          0.10480601	          0.99437694	          0.30718395	         33.04205688	          7.06105569	         -5.50568403	        -20.49827238	        -22.27070364	        -19.12217515	         -4.17369368	         10.14100372	        -15.62404682	          0.25873366	       -124.90170018	        -10.36231802	        -24.13977873	         -3.71685607	        -17.07164001	         10.22529633	         -4.00358826	        -16.24307893	        -25.74956588	        -13.59736920	         87.89445241	         74.23085783	        -24.29964022	          5.10886397	         -6.50527639	        -25.79454390	        -14.98597429	         66.86661556	         73.63894590	        -19.95747409	          5.43940733	
          0.01117527	         -4.51715947	         -7.37359910	         -0.93935631	          0.12860020	          0.99310571	          0.30823559	         32.11435808	          7.66960568	         -4.66619545	        -19.41540473	        -21.06471269	        -19.07212682	         -2.83369063	         11.59032592	        -15.72019954	         -0.48596810	       -126.29649759	         -9.82600892	        -24.53424284	         -3.97076493	        -16.72562155	         10.06350618	         -3.19670466	        -13.16204361	        -25.93436566	        -13.44791878	         88.13989090	         75.10121727	        -24.56065955	          5.08794485	         -7.82467043	        -25.61413814	        -14.90162799	         65.66132033	         72.89919394	        -20.32097995	          5.57993193	
